<?xml version="1.0" standalone="no"?><!DOCTYPE svg PUBLIC "-//W3C//DTD SVG 1.1//EN" "http://www.w3.org/Graphics/SVG/1.1/DTD/svg11.dtd"><svg t="1596619921677" class="icon" viewBox="0 0 1024 1024" version="1.1" xmlns="http://www.w3.org/2000/svg" p-id="3215" xmlns:xlink="http://www.w3.org/1999/xlink" width="200" height="200"><defs><style type="text/css"></style></defs><path d="M685.6 369.3h-433c-17.1 0-30.9-13.8-30.9-30.9 0-17.1 13.8-30.9 30.9-30.9h433c17.1 0 30.9 13.8 30.9 30.9 0 17.1-13.8 30.9-30.9 30.9zM685.6 513.7h-433c-17.1 0-30.9-13.8-30.9-30.9 0-17.1 13.8-30.9 30.9-30.9h433c17.1 0 30.9 13.8 30.9 30.9 0 17-13.8 30.9-30.9 30.9zM541.3 658H252.6c-17.1 0-30.9-13.8-30.9-30.9 0-17.1 13.8-30.9 30.9-30.9h288.6c17.1 0 30.9 13.8 30.9 30.9 0.1 17-13.7 30.9-30.8 30.9z" fill="#bfbfbf" p-id="3216"></path><path d="M768.1 926H252.6C167.4 926 98 856.6 98 771.4V255.9c0-85.3 69.4-154.6 154.6-154.6H768c85.3 0 154.6 69.4 154.6 154.6v515.4c0.1 85.3-69.3 154.7-154.5 154.7zM252.6 163.2c-51.2 0-92.8 41.6-92.8 92.8v515.4c0 51.2 41.6 92.8 92.8 92.8H768c51.2 0 92.8-41.6 92.8-92.8V255.9c0-51.2-41.6-92.8-92.8-92.8H252.6z" fill="#bfbfbf" p-id="3217"></path></svg>