<?xml version="1.0" standalone="no"?><!DOCTYPE svg PUBLIC "-//W3C//DTD SVG 1.1//EN" "http://www.w3.org/Graphics/SVG/1.1/DTD/svg11.dtd"><svg t="1596620117081" class="icon" viewBox="0 0 1024 1024" version="1.1" xmlns="http://www.w3.org/2000/svg" p-id="5378" xmlns:xlink="http://www.w3.org/1999/xlink" width="200" height="200"><defs><style type="text/css"></style></defs><path d="M513 63.9c-247.5 0-448 200.5-448 448s200.5 448 448 448 448-200.6 448-448-200.5-448-448-448z m0 833c-212.6 0-385-172.4-385-385s172.4-385 385-385 385 172.4 385 385-172.4 385-385 385z" p-id="5379" fill="#1296db"></path><path d="M710.9 313.9l-189.8 86.3c-31.3-2.3-63.4 8.6-87.3 32.5-24 24-34.8 56-32.5 87.3L315 709.9l189.8-86.3c31.3 2.3 63.4-8.6 87.3-32.5 24-24 34.8-56 32.6-87.3l86.2-189.9zM547.7 546.6c-19.2 19.2-50.1 19.2-69.3 0-19.2-19.2-19.2-50.1 0-69.3 19.2-19.2 50.1-19.2 69.3 0 19.1 19.2 19.1 50.1 0 69.3z" p-id="5380" fill="#1296db"></path></svg>